<?xml version="1.0" standalone="no"?>
<!DOCTYPE svg PUBLIC "-//W3C//DTD SVG 20010904//EN"
 "http://www.w3.org/TR/2001/REC-SVG-20010904/DTD/svg10.dtd">
<svg version="1.0" xmlns="http://www.w3.org/2000/svg"
 width="48.000000pt" height="48.000000pt" viewBox="0 0 48.000000 48.000000"
 preserveAspectRatio="xMidYMid meet">

<g transform="translate(0.000000,48.000000) scale(0.100000,-0.100000)"
fill="#000000" stroke="none">
<path d="M227 424 c-4 -4 -7 -42 -7 -85 l0 -78 -82 -3 c-66 -2 -83 -6 -83 -18
0 -12 17 -16 82 -18 l82 -3 3 -82 c2 -65 6 -82 18 -82 12 0 16 17 18 82 l3 82
82 3 c65 2 82 6 82 18 0 12 -17 16 -82 18 l-82 3 -3 81 c-3 75 -13 100 -31 82z"/>
</g>
</svg>
